<svg xmlns="http://www.w3.org/2000/svg" xmlns:xlink="http://www.w3.org/1999/xlink" width="1600" zoomAndPan="magnify" viewBox="0 0 1200 1199.999942" height="1600" preserveAspectRatio="xMidYMid meet" version="1.0"><defs><clipPath id="ecf095cb9e"><path d="M 400.582031 475 L 799 475 L 799 839 L 400.582031 839 Z M 400.582031 475 " clip-rule="nonzero"/></clipPath></defs><g clip-path="url(#ecf095cb9e)"><path fill="#ffffff" d="M 737.511719 613.699219 C 738.527344 665.457031 772.015625 692.859375 790.285156 704.023438 C 797.386719 709.097656 800.433594 718.230469 797.386719 726.347656 C 792.3125 739.542969 783.179688 758.824219 767.957031 779.121094 C 747.660156 808.550781 726.347656 836.96875 691.84375 837.980469 C 658.355469 838.996094 648.207031 818.699219 610.65625 818.699219 C 573.105469 818.699219 560.929688 836.96875 529.46875 837.980469 C 496.992188 838.996094 471.621094 806.523438 451.324219 777.089844 C 409.714844 718.230469 377.242188 609.640625 420.878906 536.570312 C 442.191406 500.039062 480.753906 476.695312 523.378906 476.695312 C 554.839844 475.679688 585.285156 498.007812 604.566406 498.007812 C 623.847656 498.007812 660.382812 472.636719 698.949219 475.679688 C 713.15625 476.695312 747.660156 480.753906 776.078125 507.140625 C 783.179688 514.246094 783.179688 526.421875 775.0625 533.527344 C 759.839844 547.734375 737.511719 574.121094 737.511719 613.699219 " fill-opacity="1" fill-rule="nonzero"/></g><path fill="#ffffff" d="M 674.589844 435.085938 C 688.800781 417.835938 698.949219 395.507812 699.960938 373.179688 C 699.960938 365.0625 693.875 358.972656 685.753906 361.003906 C 664.441406 366.078125 641.101562 379.269531 625.878906 395.507812 C 613.699219 411.746094 600.507812 435.085938 600.507812 458.429688 C 600.507812 465.53125 606.597656 470.605469 612.683594 469.589844 C 637.042969 467.5625 660.382812 453.355469 674.589844 435.085938 " fill-opacity="1" fill-rule="nonzero"/></svg>